<svg xmlns="http://www.w3.org/2000/svg" width="44" height="44" viewBox="0 0 44 44"><g transform="translate(0.021)"><g transform="translate(5.524 5.447)"><path d="M33.046,9.608a11.939,11.939,0,0,0-.76-3.965A8.372,8.372,0,0,0,27.5.862,11.977,11.977,0,0,0,23.538.1C21.789.019,21.233,0,16.8,0S11.8.019,10.059.1a11.949,11.949,0,0,0-3.965.76,7.976,7.976,0,0,0-2.9,1.89A8.046,8.046,0,0,0,1.311,5.637,11.972,11.972,0,0,0,.551,9.6c-.083,1.749-.1,2.3-.1,6.742s.019,4.992.1,6.735a11.939,11.939,0,0,0,.76,3.965,8.371,8.371,0,0,0,4.783,4.782,11.978,11.978,0,0,0,3.965.76c1.743.077,2.3.1,6.737.1s4.993-.019,6.737-.1a11.943,11.943,0,0,0,3.965-.76,8.36,8.36,0,0,0,4.783-4.782,11.98,11.98,0,0,0,.76-3.965c.077-1.743.1-2.3.1-6.735s-.006-4.992-.083-6.735ZM30.1,22.951a8.956,8.956,0,0,1-.562,3.032,5.422,5.422,0,0,1-3.1,3.1,8.993,8.993,0,0,1-3.033.562c-1.724.077-2.241.1-6.6.1s-4.885-.019-6.6-.1a8.956,8.956,0,0,1-3.033-.562,5.03,5.03,0,0,1-1.877-1.219,5.081,5.081,0,0,1-1.22-1.877,8.989,8.989,0,0,1-.562-3.032c-.077-1.724-.1-2.241-.1-6.6s.019-4.884.1-6.6a8.951,8.951,0,0,1,.562-3.032A4.967,4.967,0,0,1,5.3,4.846,5.074,5.074,0,0,1,7.173,3.626a9,9,0,0,1,3.033-.562c1.724-.077,2.241-.1,6.6-.1s4.885.019,6.6.1a8.961,8.961,0,0,1,3.033.562,5.026,5.026,0,0,1,1.877,1.219,5.08,5.08,0,0,1,1.22,1.877A8.993,8.993,0,0,1,30.1,9.755c.077,1.724.1,2.241.1,6.6s-.019,4.871-.1,6.595Zm0,0" transform="translate(-0.449 0)"/><path d="M133.341,124.5a8.388,8.388,0,1,0,8.392,8.388A8.392,8.392,0,0,0,133.341,124.5Zm0,13.83a5.441,5.441,0,1,1,5.443-5.441A5.443,5.443,0,0,1,133.341,138.33Zm0,0" transform="translate(-116.994 -116.545)"/><path d="M366.373,90.563a1.962,1.962,0,1,1-1.962-1.962A1.962,1.962,0,0,1,366.373,90.563Zm0,0" transform="translate(-339.336 -82.946)"/></g><rect width="44" height="44" transform="translate(-0.021)" fill="none"/></g></svg>