<svg xmlns="http://www.w3.org/2000/svg" width="44" height="44" viewBox="0 0 44 44"><rect width="44" height="44" fill="none"/><g transform="translate(4.869 4.869)"><g transform="translate(9.392 12.343)"><path d="M143.7,184.2H140v2.952h3.462c.617,0,1.154-.161,1.154-1.583S143.7,184.2,143.7,184.2Z" transform="translate(-140 -184.196)"/></g><g transform="translate(9.392 17.442)"><path d="M143.7,260.2H140v3.757h3.488c.537,0,1.556-.215,1.556-1.825C145.071,260.227,143.7,260.2,143.7,260.2Z" transform="translate(-140 -260.2)"/></g><g transform="translate(0 0)"><g transform="translate(0 0)"><path d="M25.331.2H8.479A8.5,8.5,0,0,0,0,8.679V25.558A8.492,8.492,0,0,0,8.479,34.01H25.358a8.5,8.5,0,0,0,8.479-8.479V8.679A8.538,8.538,0,0,0,25.331.2ZM19.857,10.933h5.635v1.342H19.857Zm-2.63,8.828c0,4.186-4.132,4.32-4.132,4.32H6.44V10.128h6.628a3.407,3.407,0,0,1,3.7,3.649,2.3,2.3,0,0,1-1.986,2.6C17.415,16.354,17.227,19.762,17.227,19.762Zm10.116-.241H20.554c0,2.683,2.308,2.469,2.308,2.469,2.174,0,2.093-1.4,2.093-1.4h2.308c0,3.757-4.481,3.6-4.481,3.6-5.367,0-5.018-5.286-5.018-5.286s0-5.313,5.018-5.313C28.068,13.563,27.343,19.52,27.343,19.52Z" transform="translate(0 -0.2)"/></g></g><g transform="translate(20.528 15.322)"><path d="M308.308,228.6A2.422,2.422,0,0,0,306,230.72h4.293A2.016,2.016,0,0,0,308.308,228.6Z" transform="translate(-306 -228.6)"/></g></g></svg>