<svg xmlns="http://www.w3.org/2000/svg" width="44" height="44" viewBox="0 0 44 44"><g transform="translate(0.043)"><rect width="44" height="44" transform="translate(-0.043)" fill="none"/><path d="M10.214,27H5.745V12.574h4.468Zm.446-19.021A2.617,2.617,0,1,0,8.044,10.6a2.617,2.617,0,0,0,2.616-2.617ZM26.936,19.064c0-3.872-.818-6.744-5.342-6.744a4.637,4.637,0,0,0-4.228,2.218h0V12.574h-4.34V27h4.34V19.837c0-1.876.477-3.693,2.8-3.693,2.293,0,2.368,2.145,2.368,3.812V27h4.4Zm5.745,9.787V3.83A3.834,3.834,0,0,0,28.851,0H3.83A3.834,3.834,0,0,0,0,3.83V28.851a3.834,3.834,0,0,0,3.83,3.83H28.851A3.834,3.834,0,0,0,32.681,28.851Zm-3.83-26.3A1.278,1.278,0,0,1,30.128,3.83V28.851a1.278,1.278,0,0,1-1.277,1.277H3.83a1.278,1.278,0,0,1-1.277-1.277V3.83A1.278,1.278,0,0,1,3.83,2.553Zm0,0" transform="translate(5.601 5.447)"/></g></svg>